name processed_emg_signals
nRows=98
nColumns=7
 
endheader
time	LGLTMED	LRF	LADDLONG	LST	LTA	LGM
1.235	0.0987622936099877	0.1409683845320485	0.06029005804265	0.4520756095556755	0.4217989723730966	0.0421440602868859
1.236	0.0987890428614789	0.140821800202132	0.0602825754046571	0.4529826325537771	0.4124554916200059	0.0418024020051057
1.237	0.0987874192394355	0.1406348717473911	0.0602674298990528	0.4537896414296816	0.4031641994860068	0.0414705154904499
1.238	0.0987575453198888	0.1404078932599011	0.0602444527607037	0.4544946083253308	0.393929346186234	0.04114856028672
1.239	0.0986995696151053	0.1401412077560318	0.0602134841490214	0.4550955817428428	0.3847550988282462	0.0408366885848461
1.24	0.0986136664004066	0.1398352064292477	0.0601743734853641	0.4555906913151503	0.3756455397150586	0.0405350451501275
1.241	0.0985000355185247	0.1394903277960261	0.0601269797711246	0.4559781525985757	0.3666046646933615	0.0402437672521461
1.242	0.0983589021608139	0.139107056738041	0.0600711718867586	0.4562562718790778	0.3576363815468234	0.0399629845981317
1.243	0.0981905166249015	0.1386859234440975	0.0600068288719054	0.4564234509827488	0.3487445084336181	0.0396928192705958
1.244	0.0979951540486536	0.1382275022558699	0.0599338401867568	0.4564781920797848	0.3399327723666062	0.0394333856698704
1.245	0.0977731141206546	0.1377324104221284	0.0598521059547983	0.4564191024698636	0.3312048077338573	0.0391847904622454
1.246	0.0975247207674833	0.1372013067668862	0.0597615371869485	0.4562448993354097	0.3225641548565939	0.0389471325342709
1.247	0.0972503218180615	0.1366348902775866	0.059662055987007	0.4559544144478119	0.3140142585813701	0.0387205029537309
1.248	0.0969502886452188	0.1360338986200467	0.0595535957382197	0.4555465988103652	0.3055584669030398	0.0385049849378214
1.249	0.0966250157844397	0.1353991065871766	0.0594361012706088	0.455020527220277	0.2972000296153019	0.0383006538289497
1.25	0.096274920529619	0.1347313244886163	0.0593095290087896	0.454375402730636	0.2889420969858849	0.0381075770786685
1.2510000000000001	0.0959004425057087	0.1340313964882594	0.0591738470999466	0.4536105609916909	0.2807877184543023	0.0379258142402168
1.252	0.0955020432182864	0.133300198896345	0.0590290355216545	0.4527254744492273	0.2727398413512883	0.0377554169701667
1.2530000000000001	0.0950802055803521	0.1325386384223916	0.0588750861692398	0.4517197563763256	0.2648013096406081	0.0375964290395919
1.254	0.0946354334169523	0.1317476503950456	0.0587120029223581	0.4505931647135067	0.2569748626857169	0.037448886355142
1.2550000000000001	0.0941682509485052	0.1309281969544757	0.0585398016904041	0.4493456056913535	0.2492631340454912	0.0373128169902432
1.256	0.0936792022538348	0.1300812652227875	0.0583585104364687	0.4479771372088922	0.2416686503046624	0.0371882412267276
1.2570000000000001	0.093168850714152	0.1292078654574881	0.0581681691795567	0.4464879719407862	0.2341938299453938	0.0370751716070468
1.258	0.0926377784393311	0.1283090291928809	0.0579688299748859	0.4448784801463427	0.2268409822666309	0.036973612997372
1.2590000000000001	0.0920865856780954	0.127385807374019	0.0577605568722652	0.443149192153717	0.219612306357805	0.0368835626618295
1.26	0.0915158902137617	0.1264392684876559	0.0575434258527015	0.4413008004930585	0.2125098901329136	0.036805010348215
1.2610000000000001	0.0909263267472924	0.1254704966944425	0.0573175247436482	0.4393341616529755	0.2055357094306299	0.0367379383854271
1.262	0.0903185462692748	0.1244805899663256	0.0570829531134125	0.4372502974359553	0.198691627185471	0.0366823217928748
1.2630000000000001	0.0896932154223287	0.1234706582329506	0.0568398221454304	0.4350503958905158	0.1919793926747151	0.0366381284019818
1.264	0.0890510158552924	0.1224418215407028	0.0565882544930868	0.432735811800632	0.1854006408454862	0.0366053189898758
1.2650000000000001	0.088392643570341	0.121395208227814	0.0563283841157672	0.4303080667157962	0.1789568917263299	0.0365838474252622
1.266	0.0877188082639609	0.1203319531188041	0.056060356096764	0.4277688485083854	0.1726495499274932	0.036573660826452
1.2670000000000001	0.0870302326625427	0.1192531957412826	0.055784326443561	0.4251200104490978	0.1664799042338597	0.0365746997314437
1.268	0.0863276518531507	0.1181600785679837	0.055500461870969	0.4223635697957985	0.160449127294154	0.0365868982798824
1.2690000000000001	0.0856118126099685	0.1170537452867554	0.0552089395674274	0.419501705895656	0.1545582754096706	0.0366101844066683
1.27	0.0848834727168437	0.1159353391011279	0.0549099469448226	0.4165367578048562	0.1488082884255451	0.0366444800468343
1.2710000000000001	0.0841434002863253	0.1148060010638233	0.0546036813720335	0.4134712214346975	0.1431999897273013	0.0366897013513468
1.272	0.0833923730755565	0.1136668684453274	0.0542903498924965	0.4103077462373598	0.1377340863452693	0.0367457589133389
1.2730000000000001	0.0826311777993893	0.1125190731393256	0.0539701689261516	0.407049131448066	0.1324111691691213	0.036812558004342
1.274	0.0818606094410952	0.1113637401065183	0.0536433639562598	0.40369832190263	0.1272317132744775	0.0368899988199893
1.2750000000000001	0.0810814705611233	0.1102019858581303	0.0533101692016961	0.4002584034510708	0.1221960783630853	0.0369779767347188
1.276	0.080294570604271	0.1090349169802349	0.0529708272753854	0.3967325979893958	0.117304509317691	0.0370763825650046
1.2770000000000001	0.079500725205625	0.1078636286998363	0.0526255888295941	0.3931242581328737	0.1125571368722658	0.0371851028407436
1.278	0.0787007554955012	0.1066892034935013	0.05227471218874	0.3894368615544993	0.1079539783979872	0.0373040200844531
1.2790000000000001	0.0778954874034274	0.1055127097392205	0.0519184629703941	0.3856740050125687	0.1034949388049335	0.037433013097987
1.28	0.0770857509609784	0.1043352004120453	0.0515571136950246	0.3818393980910805	0.0991798115592633	0.0375719572564074
1.281	0.0762723796030887	0.1031577118240035	0.0511909433850028	0.3779368566768213	0.0950082798152341	0.03772072480859
1.282	0.0754562094672041	0.1019812624087825	0.0508202371533316	0.3739702961968554	0.0909799176611156	0.0378791851840588
1.283	0.0746380786895251	0.1008068515518535	0.0504452857824735	0.3699437246401172	0.0870941914777132	0.038047205305502
1.284	0.0738188266975582	0.0996354584668629	0.0500663852937685	0.3658612353864363	0.0833504614078626	0.0382246499063758
1.285	0.0729992934981634	0.098468041119349	0.049683836507866	0.3617269998660211	0.0797479829349451	0.038411381853038
1.286	0.0721803189603501	0.0973055351989794	0.0492979445967762	0.357545260071999	0.0762859085681796	0.0386072624708858
1.287	0.0713627420921449	0.0961488531415816	0.0489090186280925	0.3533203209481758	0.0729632896321564	0.0388121518740411
1.288	0.0705474003108713	0.0949988832022839	0.04851737110208	0.3490565426738503	0.0697790781578307	0.0390259092982035
1.289	0.0697351287064186	0.0938564885811284	0.0481233174824437	0.3447583328674599	0.0667321288720252	0.0392483934362655
1.29	0.0689267592970832	0.0927225066023696	0.0477271757217099	0.3404301387307809	0.0638212012822742	0.0394794627763483
1.291	0.0681231202778443	0.0915977479487022	0.0473292657824663	0.3360764391553777	0.0610449618537511	0.0397189759418232
1.292	0.0673250352609346	0.0904829959514092	0.0469299091557833	0.3317017368125438	0.0584019862749298	0.0399667920328912
1.293	0.0665333225086357	0.0893790059372849	0.0465294283783046	0.3273105502473545	0.0558907618085692	0.0402227709692238
1.294	0.0657487941582572	0.0882865046329625	0.0461281465494791	0.3229074059966422	0.0535096897245211	0.0404867738331427
1.295	0.0649722554392024	0.0872061896269883	0.0457263868504086	0.318496830749932	0.0512570878108095	0.0407586632127614
1.296	0.0642045038820459	0.0861387288897322	0.045324472065694	0.3140833435715606	0.0491311929592872	0.0410383035443562
1.297	0.0634463285196585	0.0850847603510433	0.044922724109557	0.3096714482013701	0.0471301638220955	0.0413255614531889
1.298	0.0626985090805016	0.0840448915353571	0.0445214635573912	0.3052656254505446	0.0452520835351364	0.0416203060918275
1.299	0.0619618151746328	0.0830196992538563	0.0441210091838163	0.3008703257083633	0.0434949625047136	0.0419224094749894
1.3	0.0612370054732311	0.0820097293532063	0.0437216775081749	0.2964899615749733	0.0418567412534552	0.0422317468098826
1.301	0.0605248268828356	0.0810154965201914	0.0433237823483695	0.2921289006345097	0.0403352933217168	0.0425481968210826
1.302	0.0598260137157768	0.0800374841414984	0.0429276343838847	0.2877914583822619	0.0389284282205428	0.0428716420690738
1.303	0.0591412868585083	0.0790761442176054	0.0425335407288063	0.2834818913188079	0.0376338944323487	0.0432019692618159
1.304	0.0584713529396657	0.0781318973295581	0.0421418045156166	0.2792043902233637	0.0364493824554244	0.0435390695589632
1.305	0.0578169034997612	0.077205132657291	0.0417527244905629	0.2749630736178804	0.0353725278884901	0.0438828388686492
1.306	0.0571786141644701	0.0762962080480988	0.0413665946212845	0.270761981432661	0.0344009145514721	0.0442331781369765
1.307	0.0565571438233809	0.0754054501338276	0.0409837037173618	0.2666050688836659	0.0335320776387659	0.0445899936305426
1.308	0.0559531338161211	0.0745331544954546	0.0406043350644096	0.2624962005709876	0.0327635069011763	0.0449531972123401
1.309	0.0553672071275802	0.0736795858736905	0.0402287660722065	0.2584391448074481	0.032092649852699	0.0453227066114485
1.31	0.0547999675939975	0.072844978424291	0.0398572679373842	0.2544375681857481	0.031516914998217	0.0456984456867803
1.311	0.0542519991215994	0.0720295360166402	0.039490105321035	0.2504950303918904	0.0310336750781542	0.0460803446851763
1.312	0.0537238649194004	0.0712334325741322	0.0391275360415828	0.2466149792720261	0.0306402703261068	0.0464683404939803
1.313	0.0532161067478512	0.0704568124545924	0.0387698107831737	0.2428007461592636	0.0303340117353248	0.0468623768882086
1.314	0.0527292441848152	0.0696997908688715	0.0384171728197473	0.2390555414662592	0.0301121843299916	0.0472624047723236
1.315	0.0522637739104237	0.0689624543354756	0.0380698577548913	0.2353824505488653	0.0299720504372088	0.0476683824166248
1.316	0.0518201690121671	0.0682448611691073	0.0377280932774995	0.2317844298453138	0.0299108529555984	0.0480802756881584
1.317	0.0513988783116238	0.0675470420009744	0.0373920989332242	0.2282643032947626	0.0299258186165179	0.0484980582761395
1.318	0.0510003257141793	0.0668690003288845	0.0370620859116329	0.2248247590382621	0.0300141612338596	0.0489217119117194
1.319	0.0506249095830923	0.0662107130953177	0.0367382568489445	0.2214683464045311	0.0301730849384366	0.0493512265820291
1.32	0.0502730021392682	0.0655721312919277	0.0364208056460874	0.2181974731821064	0.0303997873929985	0.0497866007381965
1.321	0.0499449488880864	0.0649531805891227	0.0361099173017839	0.2150144031787831	0.0306914629838173	0.0502278414970936
1.322	0.0496410680745249	0.0643537619895534	0.03580576776024	0.211921254068474	0.0310453059848947	0.0506749648364207
1.323	0.0493616501678988	0.0637737525045091	0.0355085237730648	0.2089199955248775	0.0314585136907638	0.0511279957826916
1.324	0.0491069573773797	0.0632130058522617	0.0352183427750937	0.2060124476406415	0.0319282895139075	0.0515869685915823
1.325	0.0488772231994241	0.062671353177513	0.0349353727739306	0.2032002796298634	0.0324518460428108	0.0520519269200491
1.326	0.0486726519981315	0.0621486037910286	0.0346597522531539	0.2004850088111747	0.0330264080566562	0.0525229239893981
1.327	0.0484934186195583	0.0616445459285892	0.0343916100892008	0.1978679998678756	0.0336492154927095	0.0530000227385211
1.328	0.0483396680408566	0.0611589475284083	0.0341310654820018	0.1953504643810871	0.0343175263624814	0.0534832959663802
1.329	0.0482115150552324	0.0606915570261442	0.0338782278994379	0.1929334606311855	0.0350286196129032	0.0539728264628547
1.33	0.048109043993649	0.0602421041667109	0.0336331970356565	0.1906178936622846	0.035779797928845	0.0544687071271609
1.331	0.0480323084842547	0.0598103008320568	0.0333960627831726	0.1884045156038059	0.0365683904733741	0.0549710410730355
1.332	0.0479813312505666	0.0593958418840676	0.0331669052187446	0.1862939262425993	0.0373917555622232	0.0554799417200035
